<?xml version="1.0" encoding="utf-8"?>
<!-- Generator: Adobe Illustrator 26.1.0, SVG Export Plug-In . SVG Version: 6.00 Build 0)  -->
<svg version="1.1" id="Layer_1" xmlns="http://www.w3.org/2000/svg" xmlns:xlink="http://www.w3.org/1999/xlink" x="0px" y="0px"
	 viewBox="0 0 391 62.1" style="enable-background:new 0 0 391 62.1;" xml:space="preserve">
<style type="text/css">
	.st0{fill:#563D81;}
</style>
<g>
	<polygon class="st0" points="18.1,10.7 34.5,10.7 34.5,56.7 39.9,62.1 45.4,56.7 45.4,10.7 61.7,10.7 72.2,0.1 7.5,0.1 	"/>
	<polygon class="st0" points="102.2,0 102.2,10.7 115.8,10.7 115.8,51.1 126.8,51.1 126.8,10.7 140.3,10.7 140.3,0 	"/>
	<rect x="151.6" class="st0" width="11" height="51.1"/>
	<polygon class="st0" points="173.8,0 173.8,10.7 187.4,10.7 187.4,51.1 198.4,51.1 198.4,10.7 211.9,10.7 211.9,0 	"/>
	<path class="st0" d="M236.8,12.9l5.6,18.1H231L236.8,12.9z M231.3,0l-18.4,51.1h11.8l3-9.6h17.8l2.9,9.6h11.9L242,0H231.3z"/>
	<polygon class="st0" points="296.8,0 296.8,32.7 278.7,0 267.7,0 267.7,51.1 278.7,51.1 278.7,18.4 296.8,51.1 307.7,51.1 307.7,0 
			"/>
	<rect x="322.4" class="st0" width="11" height="51.1"/>
	<path class="st0" d="M367.3,12.9l5.6,18.1h-11.4L367.3,12.9z M361.9,0l-18.4,51.1h11.8l3-9.6h17.8l2.9,9.6H391L372.6,0H361.9z"/>
	<polygon class="st0" points="64,16.1 50.8,16.1 50.8,51.1 61.7,40.2 61.7,27 69.3,27 80,16.4 80,0.1 	"/>
	<polygon class="st0" points="0,16.5 10.6,27 18.2,27 18.2,40.2 29.1,51.1 29.1,16.1 16,16.1 0,0.1 	"/>
</g>
</svg>
